<svg xmlns="http://www.w3.org/2000/svg" viewBox="0 0 96.73 83.99"><defs><style>.cls-1{fill:#fff;}.cls-2{fill:#e1dce6;}.cls-3{fill:#eb1836;}.cls-4{fill:none;stroke:#273ac6;stroke-linecap:round;stroke-miterlimit:10;stroke-width:2px;}.cls-5{fill:#4a00e4;}</style></defs><title>Fichier 3</title><g id="Calque_2" data-name="Calque 2"><g id="Layer_1" data-name="Layer 1"><path class="cls-1" d="M74.3,34.42c-.14-.14-.28-.14-.42-.28V1H62.16V33.57H38.88V4.71H27.17V50.28a13.75,13.75,0,0,0,2,7.14l6.43,11H65.45l8.28-9.28h0l1-1.15a13.87,13.87,0,0,0,3.72-9.57V41.14A7.61,7.61,0,0,0,74.3,34.42Z"/><path class="cls-2" d="M38.88,40.42H27.17v5.15H36v4.85h9v1a12.08,12.08,0,0,0,1,5c3.29-9.71,13.29-10.85,13.29-10.85H38.88Z"/><rect class="cls-2" x="38.88" y="40.42" width="23.28" height="5.14"/><path class="cls-2" d="M74.3,34.42a5.75,5.75,0,0,0-3.14-.85H65.45a5.77,5.77,0,0,1,3.14.85,8,8,0,0,1,4.14,7v7.29A13.86,13.86,0,0,1,69,58.28l-5.71,6a3.94,3.94,0,0,1-2.72,1.14H33.45l1.86,3.14H65.16l9.29-10.28a13.86,13.86,0,0,0,3.71-9.57V41.42A7,7,0,0,0,74.3,34.42Z"/><rect class="cls-2" x="33.74" y="4.71" width="5.14" height="22.43"/><rect class="cls-2" x="68.73" y="1" width="5.14" height="26.28"/><path class="cls-3" d="M38.88,40.42H16.17V27.28H38.88Z"/><path class="cls-3" d="M62.16,27.28v6.29h9a5.75,5.75,0,0,1,3.14.85,8,8,0,0,1,4.15,6H95.73V27.28Z"/><path class="cls-1" d="M95.73,29.85H62.31V27.14H95.73Z"/><path class="cls-1" d="M38.88,29.85H16.17V27.14H38.88Z"/><polygon class="cls-1" points="16.03 40.42 16.03 27.28 2.31 33.85 16.03 40.42"/><polygon class="cls-2" points="2.31 33.85 16.03 33.85 16.03 40.42 2.31 33.85"/><rect class="cls-1" x="50.59" y="17.85" width="11.71" height="15.71"/><rect class="cls-2" x="57.02" y="17.85" width="5.14" height="15.71"/><rect class="cls-1" x="38.88" y="17.85" width="11.71" height="15.71"/><rect class="cls-2" x="45.31" y="17.85" width="5.14" height="15.71"/><rect class="cls-1" x="32.74" y="68.56" width="35.85" height="14.43"/><rect class="cls-2" x="56.31" y="68.56" width="12.28" height="14.43"/><circle class="cls-3" cx="40.88" cy="75.85" r="2.43"/><rect class="cls-4" x="27.17" y="4.71" width="11.71" height="22.43"/><rect class="cls-4" x="62.16" y="1" width="11.71" height="26.28"/><path class="cls-4" d="M78.45,40.42H95.73V27.28H62.16v6.29h9a5.75,5.75,0,0,1,3.14.85,7.69,7.69,0,0,1,4.15,6Z"/><polygon class="cls-4" points="38.88 40.42 16.03 40.42 2.31 33.85 16.03 27.28 38.88 27.28 38.88 40.42"/><rect class="cls-4" x="38.88" y="17.85" width="11.71" height="15.71"/><rect class="cls-4" x="50.59" y="17.85" width="11.71" height="15.71"/><rect class="cls-4" x="32.74" y="68.56" width="35.85" height="14.43"/><line class="cls-4" x1="78.45" y1="27.28" x2="78.45" y2="40.42"/><line class="cls-4" x1="16.03" y1="40.42" x2="16.03" y2="27.28"/><polygon class="cls-5" points="7.46 31.28 7.46 36.28 2.31 33.85 7.46 31.28"/><line class="cls-4" x1="55.88" y1="45.57" x2="62.16" y2="45.57"/><path class="cls-4" d="M45.88,56.85C49,46.71,59.31,45.57,59.31,45.57H38.88v-12H71.16a5.75,5.75,0,0,1,3.14.85,8,8,0,0,1,4.15,7v7.29a13.87,13.87,0,0,1-3.72,9.57L65.45,68.56H35.6l-6.43-11a14.13,14.13,0,0,1-2-7.14v-10"/><circle class="cls-4" cx="40.88" cy="75.85" r="2.43"/></g></g></svg>