<svg xmlns="http://www.w3.org/2000/svg" viewBox="0 0 75.2 80.83"><defs><style>.cls-1{fill:#eb1836;}.cls-2{fill:#fff;}.cls-3{fill:#e1dce6;}.cls-4{fill:none;stroke:#273ac6;stroke-linecap:round;stroke-miterlimit:10;stroke-width:2px;}</style></defs><title>Fichier 2</title><g id="Calque_2" data-name="Calque 2"><g id="Layer_1" data-name="Layer 1"><rect class="cls-1" x="25.4" y="55.43" width="24.4" height="24.4"/><rect class="cls-2" x="25.4" y="55.43" width="24.4" height="2.47"/><rect class="cls-1" x="25.4" y="31.02" width="24.4" height="24.4"/><rect class="cls-2" x="25.4" y="31.02" width="24.4" height="2.19"/><rect class="cls-1" x="32.12" y="25.4" width="11.1" height="5.62"/><rect class="cls-2" x="31.98" y="25.54" width="11.1" height="2.19"/><rect class="cls-2" x="49.8" y="31.02" width="24.4" height="24.4"/><rect class="cls-3" x="67.62" y="31.02" width="6.58" height="24.4"/><rect class="cls-2" x="49.8" y="55.43" width="24.4" height="24.4"/><rect class="cls-3" x="67.62" y="55.43" width="6.58" height="24.4"/><rect class="cls-2" x="7.71" y="49.81" width="11.1" height="5.62"/><rect class="cls-2" x="1" y="55.43" width="24.4" height="24.4"/><rect class="cls-3" x="18.82" y="55.43" width="6.58" height="24.4"/><rect class="cls-3" x="14.43" y="49.94" width="4.25" height="5.62"/><rect class="cls-1" x="56.52" y="1" width="11.1" height="5.62"/><rect class="cls-2" x="56.38" y="1.14" width="11.1" height="2.19"/><rect class="cls-1" x="49.8" y="6.62" width="24.4" height="24.4"/><rect class="cls-2" x="49.8" y="6.62" width="24.4" height="2.19"/><rect class="cls-4" x="7.71" y="49.81" width="11.1" height="5.62"/><rect class="cls-4" x="1" y="55.43" width="24.4" height="24.4"/><rect class="cls-4" x="25.4" y="55.43" width="24.4" height="24.4"/><rect class="cls-4" x="32.12" y="25.4" width="11.1" height="5.62"/><rect class="cls-4" x="25.4" y="31.02" width="24.4" height="24.4"/><rect class="cls-4" x="49.8" y="31.02" width="24.4" height="24.4"/><rect class="cls-4" x="49.8" y="55.43" width="24.4" height="24.4"/><rect class="cls-4" x="56.52" y="1" width="11.1" height="5.62"/><rect class="cls-4" x="49.8" y="6.62" width="24.4" height="24.4"/></g></g></svg>