<svg xmlns="http://www.w3.org/2000/svg" viewBox="0 0 103.62 83"><defs><style>.cls-1{fill:#fff;}.cls-2{fill:#e1dce6;}.cls-3{fill:#eb1836;}.cls-4{fill:#fc3f3f;}.cls-5,.cls-6{fill:none;stroke:#273ac6;stroke-miterlimit:10;stroke-width:2px;}.cls-5{stroke-linecap:round;}.cls-6{stroke-linecap:square;}</style></defs><title>Fichier 1</title><g id="Calque_2" data-name="Calque 2"><g id="Layer_1" data-name="Layer 1"><rect class="cls-1" x="27.07" y="28.98" width="49.19" height="13.11"/><rect class="cls-2" x="65.8" y="28.98" width="10.46" height="13.11"/><path class="cls-3" d="M82.74,82H20.88A19.89,19.89,0,0,1,1,62.12H1A19.8,19.8,0,0,1,20.88,42.24H82.74a19.8,19.8,0,0,1,19.88,19.88h0A19.89,19.89,0,0,1,82.74,82Z"/><path class="cls-1" d="M82.74,42.24H20.88A19.8,19.8,0,0,0,1,62.12H1v1A19.89,19.89,0,0,1,20.88,44.3H82.74a20,20,0,0,1,19.88,18.85v-1h0A19.8,19.8,0,0,0,82.74,42.24Z"/><path class="cls-1" d="M82.74,74.93H20.88A12.82,12.82,0,0,1,8.07,62.12h0A12.82,12.82,0,0,1,20.88,49.31H82.74A12.82,12.82,0,0,1,95.55,62.12h0A12.72,12.72,0,0,1,82.74,74.93Z"/><path class="cls-2" d="M82.74,49.16H20.88a12.83,12.83,0,0,0-10.6,5.6,12.23,12.23,0,0,1,7.21-2.21H75.08A12.82,12.82,0,0,1,87.89,65.36a13,13,0,0,1-4.12,9.42,12.83,12.83,0,0,0-1-25.62Z"/><path class="cls-1" d="M82.74,68.6h0a6.54,6.54,0,0,1-6.48-6.48h0a6.53,6.53,0,0,1,6.48-6.48h0a6.54,6.54,0,0,1,6.48,6.48h0A6.54,6.54,0,0,1,82.74,68.6Z"/><path class="cls-2" d="M82.74,55.64a7.83,7.83,0,0,0-1.92.29,6.47,6.47,0,0,1,0,12.37,8.52,8.52,0,0,0,1.92.3,6.48,6.48,0,1,0,0-13Z"/><path class="cls-1" d="M63,8.81a10.9,10.9,0,0,0-20.91,0Z"/><path class="cls-2" d="M52.55,1a16.92,16.92,0,0,0-2.65.29,10.64,10.64,0,0,1,7.8,7.52h5.16A10.65,10.65,0,0,0,52.55,1Z"/><rect class="cls-1" x="34.73" y="8.95" width="35.64" height="15.61"/><rect class="cls-2" x="61.24" y="8.95" width="9.28" height="15.61"/><rect class="cls-3" x="70.37" y="12.93" width="29.9" height="7.51"/><rect class="cls-1" x="70.37" y="12.93" width="29.9" height="2.21"/><circle class="cls-4" cx="43.56" cy="16.61" r="2.65"/><path class="cls-1" d="M20.88,68.6h0a6.54,6.54,0,0,1-6.48-6.48h0a6.54,6.54,0,0,1,6.48-6.48h0a6.53,6.53,0,0,1,6.48,6.48h0A6.45,6.45,0,0,1,20.88,68.6Z"/><path class="cls-2" d="M20.88,55.64a7.82,7.82,0,0,0-1.91.29A6.47,6.47,0,0,1,19,68.3a8.44,8.44,0,0,0,1.91.3,6.54,6.54,0,0,0,6.48-6.48A6.44,6.44,0,0,0,20.88,55.64Z"/><path class="cls-5" d="M82.74,82H20.88A19.89,19.89,0,0,1,1,62.12H1A19.8,19.8,0,0,1,20.88,42.24H82.74a19.8,19.8,0,0,1,19.88,19.88h0A19.89,19.89,0,0,1,82.74,82Z"/><path class="cls-5" d="M82.74,68.6h0a6.54,6.54,0,0,1-6.48-6.48h0a6.53,6.53,0,0,1,6.48-6.48h0a6.54,6.54,0,0,1,6.48,6.48h0A6.54,6.54,0,0,1,82.74,68.6Z"/><rect class="cls-6" x="27.07" y="28.98" width="49.19" height="13.11"/><path class="cls-5" d="M63,8.81a10.9,10.9,0,0,0-20.91,0Z"/><rect class="cls-6" x="34.73" y="8.95" width="35.64" height="15.61"/><rect class="cls-6" x="70.37" y="12.93" width="29.9" height="7.51"/><path class="cls-5" d="M82.74,74.93H20.88A12.82,12.82,0,0,1,8.07,62.12h0A12.82,12.82,0,0,1,20.88,49.31H82.74A12.82,12.82,0,0,1,95.55,62.12h0A12.72,12.72,0,0,1,82.74,74.93Z"/><path class="cls-5" d="M20.88,68.6h0a6.54,6.54,0,0,1-6.48-6.48h0a6.54,6.54,0,0,1,6.48-6.48h0a6.53,6.53,0,0,1,6.48,6.48h0A6.45,6.45,0,0,1,20.88,68.6Z"/><circle class="cls-6" cx="43.56" cy="16.61" r="2.65"/></g></g></svg>